<?xml version="1.0" encoding="UTF-8"?>
<svg id="Layer_2" data-name="Layer 2" xmlns="http://www.w3.org/2000/svg" viewBox="0 0 1200 343.61">
  <defs>
    <style>
      .cls-1 {
        fill: #0d0d0d;
      }

      .cls-2 {
        fill: #ff4000;
      }
    </style>
  </defs>
  <g id="Layer_1-2" data-name="Layer 1">
    <g>
      <path class="cls-1" d="M1175.91,281.1c7.51,0,16.31-1.29,22.95-2.86.67-.16,1.14-.76,1.14-1.45v-25.52c0-.98-.93-1.7-1.88-1.44-3.67,1-7.89,1.87-12.81,1.87-12.28,0-16.86-4.09-16.86-13.97v-50.58h29.59c.82,0,1.48-.66,1.48-1.48v-29.32c0-.82-.66-1.48-1.48-1.48h-29.59v-42.6c0-.82-.66-1.48-1.48-1.48h-35.59c-.82,0-1.48.66-1.48,1.48v42.6h-17.55c-.82,0-1.48.66-1.48,1.48v29.32c0,.82.66,1.48,1.48,1.48h17.55v53.23c0,26.73,14.45,40.7,46,40.7M1020.12,279.42h35.59c.82,0,1.48-.66,1.48-1.48v-59.22c0-20.47,10.12-31.55,32.76-31.55h6.47c.82,0,1.48-.66,1.48-1.48v-30.05c0-.82-.66-1.48-1.48-1.48h-5.51c-18.3,0-28.42,7.23-34.68,23.12l-.23-20.94c0-.81-.67-1.46-1.48-1.46h-34.4c-.82,0-1.48.66-1.48,1.48v121.57c0,.82.66,1.48,1.48,1.48ZM940.85,254.85c-12.28,0-19.27-5.78-19.27-14.45s7.23-15.17,23.12-15.17c6.98,0,13.49,1.2,20.71,3.85v5.3c0,12.28-10.36,20.47-24.57,20.47M927.36,282.55c18.06,0,30.83-7.71,39.02-21.2l1.56,16.73c.07.76.71,1.34,1.47,1.34h32.1c.82,0,1.48-.66,1.48-1.48v-83.79c0-26.01-21.2-42.39-55.16-42.39s-54.92,14.28-57.87,38.35c-.11.87.59,1.63,1.47,1.63h33.56c.68,0,1.25-.47,1.43-1.13,2.04-7.46,8.51-11.39,20.44-11.39,12.52,0,18.55,5.54,18.55,14.69v13.73c-7.71-3.61-17.82-5.3-27.46-5.3-32.27,0-53.47,16.62-53.47,41.43,0,23.36,18.06,38.78,42.87,38.78M678.35,279.42h35.59c.82,0,1.48-.66,1.48-1.48v-65.72c0-20.71,8.67-29.87,21.92-29.87,12.28,0,18.06,8.67,18.06,25.53v70.06c0,.82.66,1.48,1.48,1.48h35.59c.82,0,1.48-.66,1.48-1.48v-65.48c0-20.47,7.95-30.11,21.44-30.11,12.04,0,18.55,8.19,18.55,25.29v70.3c0,.82.66,1.48,1.48,1.48h35.59c.82,0,1.48-.66,1.48-1.48v-77.52c0-28.9-12.04-48.65-42.63-48.65-18.06,0-31.55,8.91-40.22,23.12-6.26-15.9-19.03-23.12-37.57-23.12s-31.55,11.32-37.33,22.16l-.89-17.63c-.04-.78-.69-1.4-1.47-1.4h-33.97c-.82,0-1.48.66-1.48,1.48v121.57c0,.82.66,1.48,1.48,1.48ZM638.34,281.1c7.52,0,16.32-1.29,22.96-2.86.66-.16,1.12-.75,1.12-1.44v-25.55c0-.97-.92-1.68-1.86-1.42-3.68,1-7.9,1.88-12.83,1.88-12.28,0-16.86-4.09-16.86-13.97v-50.58h30.37c.39,0,.7-.31.7-.7v-30.87c0-.39-.31-.7-.7-.7h-30.37v-43.37c0-.39-.31-.7-.7-.7h-37.13c-.39,0-.7.31-.7.7v43.37h-18.32c-.39,0-.7.31-.7.7v30.87c0,.39.31.7.7.7h18.32v53.23c0,26.73,14.45,40.7,46,40.7M505.14,251.48c-16.86,0-26.25-12.28-26.25-34.44s9.39-34.2,26.25-34.2,26.25,12.28,26.25,34.2-9.39,34.44-26.25,34.44M505.14,282.55c39.26,0,65.27-26.49,65.27-64.31v-2.41c0-37.57-26.01-64.07-65.27-64.07s-65.27,26.49-65.27,64.07v2.41c0,37.81,25.77,64.31,65.27,64.31M307.68,279.42h35.59c.82,0,1.48-.66,1.48-1.48v-66.93c0-18.3,9.39-28.42,23.36-28.42,14.69,0,19.99,9.87,19.99,26.73v68.61c0,.82.66,1.48,1.48,1.48h35.59c.82,0,1.48-.66,1.48-1.48v-78.49c0-27.7-11.8-47.69-43.35-47.69-19.75,0-32.03,10.12-38.3,20.71v-60.18c0-.82-.66-1.48-1.48-1.48h-35.83c-.82,0-1.48.66-1.48,1.48v165.65c0,.82.66,1.48,1.48,1.48Z"/>
      <path class="cls-2" d="M123.53,282.65c-35.31,0-63.96-29.3-63.96-65.43s28.62-65.43,63.96-65.43,63.96,29.3,63.96,65.43-28.62,65.43-63.96,65.43M239.61,161.43c-4.42-15.69-10.81-30.99-19.96-46.11,0,0-8.63-14.29-12.25-18.62-.88-1.12-2.68.12-2,1.39,1.03,2.13,1.95,4.73,1.3,7.31-1.06,3.11-4.53,5.3-7.74,4.17-.85-.36-1.65-.86-2.36-1.6-3.3-3.4-4.98-9-7.13-16.13-1.92-6.33-4.27-14.23-8.57-22.76-6.95-13.85-15.2-20.27-15.52-20.54-.41-.32-1-.32-1.44,0-.44.33-.62.86-.44,1.39.03.12,3.5,11.54-3.18,20.18-2.65,3.46-6.71,5.53-11.43,5.83-4.74.29-9.42-1.27-12.25-4.08-6.98-7.01-7.8-19.44-7.66-26.22.44-22.61,7.27-38.44,10.84-43.68.32-.44.3-1.06-.06-1.51-.35-.42-.91-.59-1.41-.36-27.65,12.02-47.68,32.49-57.89,59.22-5.77,15.89-8.27,23.14-10.31,27.7-1.88,4.17-3.62,6.1-5.39,7.16-.97.59-2.18.92-3.39.98-1.8-.18-10.72-1.83-2.95-16.75.65-1.24-1.06-2.51-2-1.48l-6.13,6.75c-.27.3-.56.59-.83.89l-1.03,1.13c-.18.21-.32.38-.47.59-19.32,22.08-32.83,50.31-40.61,76.44C.39,187.86-.06,207.89,0,215.53v1.69C0,250.98,12.84,282.7,36.19,306.59c23.32,23.85,54.36,37.02,87.34,37.02s64.02-13.14,87.34-37.02c23.32-23.88,36.19-55.61,36.19-89.38,0-21.52-2.77-39.03-7.45-55.79"/>
    </g>
  </g>
</svg>